<svg width="173" height="40" viewBox="0 0 173 40" fill="none" xmlns="http://www.w3.org/2000/svg">
<path fill-rule="evenodd" clip-rule="evenodd" d="M14.9219 11.1941V16.2145H34.4614V26.2779H14.9219C14.9219 26.2779 14.9461 38.0298 14.9461 38.0523C16.4696 38.7052 18.0414 39.223 19.6375 39.5382C29.1413 37.6921 38.0647 29.8125 38.3549 15.8093L38.4516 11.2166H14.9219V11.1941Z" fill="#3B7C20"/>
<path d="M38.258 11.5663L38.4511 0.823727C32.1984 0.377975 25.8491 0.132812 19.4756 0.132812C13.078 0.132812 6.75277 0.355688 0.5 0.823727L0.62071 9.22614L0.789704 16.113C0.789704 16.113 0.862129 22.5095 3.17976 27.0785C7.01833 35.414 14.792 38.1554 14.792 38.1554L14.7679 26.499H34.2504V16.5365H14.7438V11.5663H38.258Z" fill="#76B62F"/>
<path d="M65.0646 5.40882V8.22789H70.8819V11.3872H65.0646V16.6608H61.2666V2.24951H71.3867V5.40882H65.0646Z" fill="black"/>
<path d="M81.8915 12.8453H78.9348V16.6608H75.1367V2.24951H82.4684C83.6462 2.27381 84.5837 2.39533 85.2808 2.63835C85.9779 2.88137 86.5068 3.29451 86.8433 3.92637C87.2039 4.55823 87.3722 5.45742 87.3722 6.62393C87.3722 7.62033 87.3241 8.3737 87.252 8.88405C87.1558 9.3944 86.9395 9.83184 86.5549 10.1964C86.1703 10.5609 85.5453 10.8525 84.7039 11.0713V11.2171C85.4972 11.2414 86.1222 11.4844 86.5789 11.9218C87.0356 12.3593 87.252 12.9668 87.252 13.7931V16.6608H83.4299V14.6437C83.4299 13.4529 82.9251 12.8453 81.8915 12.8453ZM78.9348 9.49161H81.8915C82.3963 9.49161 82.7568 9.4187 82.9732 9.29719C83.1895 9.17568 83.3337 8.95696 83.3818 8.66533C83.4299 8.3737 83.4539 7.91196 83.4539 7.25579C83.4539 6.59963 83.3578 6.16219 83.1414 5.94347C82.9251 5.72475 82.5164 5.60324 81.8915 5.60324H78.9348V9.49161Z" fill="black"/>
<path d="M95.2331 5.40882V8.03347H101.315V10.7067H95.2331V13.5015H101.868V16.6608H91.4351V2.24951H101.723V5.40882H95.2331Z" fill="black"/>
<path d="M109.896 5.40882V8.03347H115.977V10.7067H109.896V13.5015H116.506V16.6608H106.098V2.24951H116.386V5.40882H109.896Z" fill="black"/>
<path d="M120.642 16.6608V2.24951H127.853C129.199 2.24951 130.305 2.44393 131.122 2.80847C131.964 3.173 132.589 3.75626 132.973 4.58254C133.382 5.40882 133.574 6.47812 133.574 7.83905V10.8525C133.574 12.2135 133.406 13.3071 133.093 14.1577C132.781 15.0082 132.228 15.6401 131.459 16.0532C130.69 16.4664 129.656 16.6851 128.358 16.6851H120.642V16.6608ZM124.44 5.60324V13.3314H127.757C129.031 13.3314 129.68 12.5051 129.68 10.8768V7.86336C129.68 7.2558 129.608 6.79405 129.488 6.45382C129.367 6.13789 129.151 5.91917 128.887 5.79766C128.622 5.67614 128.238 5.62754 127.757 5.62754H124.44V5.60324Z" fill="black"/>
<path d="M143.838 16.7822C142.78 16.7822 141.867 16.7093 141.098 16.5635C140.328 16.4177 139.631 16.1504 139.054 15.7615C138.478 15.3727 138.045 14.8381 137.708 14.1333C137.396 13.4285 137.228 12.5536 137.228 11.4843V7.42584C137.228 6.35654 137.396 5.45735 137.708 4.75258C138.021 4.04782 138.478 3.51316 139.054 3.12433C139.631 2.73549 140.304 2.49247 141.074 2.34665C141.843 2.20084 142.78 2.12793 143.814 2.12793C144.872 2.12793 145.785 2.20084 146.578 2.34665C147.372 2.49247 148.045 2.75979 148.622 3.12433C149.199 3.48886 149.631 4.04782 149.944 4.75258C150.256 5.45735 150.425 6.33224 150.425 7.42584V11.5086C150.425 12.5779 150.28 13.4771 149.944 14.1576C149.631 14.8624 149.175 15.397 148.622 15.7858C148.045 16.1747 147.372 16.4177 146.578 16.5878C145.809 16.7093 144.896 16.7822 143.838 16.7822ZM143.838 13.4285C144.559 13.4285 145.112 13.3799 145.473 13.2827C145.833 13.1855 146.098 12.9668 146.266 12.6265C146.434 12.2863 146.506 11.776 146.506 11.0712V7.83898C146.506 7.30433 146.458 6.86689 146.362 6.57526C146.266 6.25933 146.122 6.04061 145.905 5.87049C145.713 5.72468 145.449 5.60317 145.112 5.57886C144.8 5.53026 144.343 5.50596 143.814 5.50596C143.093 5.50596 142.564 5.55456 142.203 5.65177C141.843 5.74898 141.578 5.9677 141.41 6.28363C141.242 6.62387 141.146 7.13421 141.122 7.83898V11.0712C141.146 11.776 141.242 12.3106 141.41 12.6265C141.578 12.9668 141.843 13.1855 142.203 13.2827C142.588 13.3799 143.117 13.4285 143.838 13.4285Z" fill="black"/>
<path d="M157.828 5.60324L158.189 16.6608H154.391V2.24951H160.424L163.141 11.29H163.285L165.857 2.24951H172.035V16.6608H168.237L168.621 5.60324H168.477L164.871 16.6608H161.578L157.924 5.60324H157.828Z" fill="black"/>
<path d="M66.0263 24.5348V25.7742H63.4302V34.6202H61.9158V25.7742H60.4014V24.5348H61.9158V23.028C61.9158 21.9101 62.1562 21.1324 62.661 20.695C63.1658 20.2575 63.9831 20.0388 65.1128 20.0388L66.0503 20.0874V21.3268C65.7859 21.3025 65.5215 21.2782 65.233 21.2782H64.9686C64.3917 21.2782 64.0071 21.3998 63.7907 21.6428C63.5744 21.8858 63.4542 22.3232 63.4542 22.9065V24.5105H66.0263V24.5348Z" fill="black"/>
<path d="M70.0886 21.8615H68.5742V20.209H70.0886V21.8615ZM70.0886 34.6203H68.5742V24.5591H70.0886V34.6203Z" fill="black"/>
<path d="M75.0168 28.4476V34.6204H73.5024V24.5593H74.9207V25.8473C75.2813 25.2883 75.762 24.8752 76.387 24.6565C76.8918 24.4864 77.5168 24.3892 78.3341 24.3892C79.6802 24.3892 80.6418 24.6322 81.1706 25.1425C81.6995 25.6529 81.9879 26.5764 81.9879 27.9616V34.6204H80.4735V28.1074C80.4735 27.0867 80.3293 26.4306 80.0168 26.1146C79.7043 25.7987 79.0553 25.6286 78.0457 25.6286C77.0361 25.6286 76.2909 25.8473 75.7861 26.2847C75.2572 26.7222 75.0168 27.4513 75.0168 28.4476Z" fill="black"/>
<path d="M92.1318 29.711V28.2772C92.1318 27.062 91.9635 26.2844 91.627 25.9927C91.2905 25.6768 90.4972 25.531 89.2232 25.531C88.3097 25.531 87.6847 25.6282 87.3722 25.8226C87.0357 26.017 86.8674 26.4302 86.8674 27.062V27.3537H85.353C85.353 26.0899 85.7136 25.2637 86.4828 24.8505C87.0117 24.5589 87.9491 24.4131 89.3193 24.4131C90.8578 24.4131 91.9395 24.6075 92.5404 24.9963C93.3097 25.5067 93.6702 26.4788 93.6702 27.9612V34.6444H92.252L92.3001 33.3806C91.9635 34.0125 91.5789 34.4013 91.1703 34.5715C90.7616 34.7416 90.0164 34.8388 88.9587 34.8388C87.6126 34.8388 86.6511 34.6444 86.0742 34.2555C85.3771 33.7938 85.0405 32.8946 85.0405 31.6066C85.0405 30.3915 85.3771 29.5652 86.0742 29.1034C86.627 28.7389 87.5645 28.5445 88.8386 28.5445C89.9684 28.5445 90.7616 28.6174 91.1943 28.7875C91.5789 28.9576 91.9154 29.2493 92.1318 29.711ZM92.1318 31.6795C92.1318 30.8046 91.9154 30.2699 91.5068 30.0269C91.0981 29.8082 90.1847 29.6867 88.8145 29.6867C87.9972 29.6867 87.4203 29.7839 87.1078 30.0026C86.7232 30.2699 86.5309 30.7317 86.5309 31.4122C86.5309 32.2627 86.6992 32.846 87.0357 33.1376C87.3722 33.4536 87.9732 33.5994 88.8386 33.5994C90.0164 33.5994 90.8097 33.5265 91.1943 33.3563C91.8193 33.1133 92.1318 32.5544 92.1318 31.6795Z" fill="black"/>
<path d="M98.574 28.4476V34.6204H97.0596V24.5593H98.4778V25.8473C98.8384 25.2883 99.3192 24.8752 99.9442 24.6565C100.449 24.4864 101.074 24.3892 101.891 24.3892C103.237 24.3892 104.199 24.6322 104.728 25.1425C105.257 25.6529 105.545 26.5764 105.545 27.9616V34.6204H104.031V28.1074C104.031 27.0867 103.886 26.4306 103.574 26.1146C103.261 25.7987 102.612 25.6286 101.603 25.6286C100.593 25.6286 99.848 25.8473 99.3432 26.2847C98.8384 26.7222 98.574 27.4513 98.574 28.4476Z" fill="black"/>
<path d="M115.81 30.9751H117.276C117.276 32.4818 116.939 33.5268 116.266 34.0615C115.665 34.5718 114.56 34.8149 112.973 34.8149C111.314 34.8149 110.185 34.4503 109.584 33.7213C108.983 32.9922 108.694 31.6313 108.694 29.6142C108.694 27.6214 108.983 26.2361 109.584 25.5071C110.185 24.778 111.29 24.3892 112.925 24.3892C114.295 24.3892 115.305 24.5836 115.954 24.9967C116.723 25.4828 117.084 26.3333 117.084 27.5242V27.8401H115.641C115.641 26.9895 115.473 26.4306 115.161 26.1389C114.8 25.7987 114.031 25.6286 112.901 25.6286C111.795 25.6286 111.05 25.8716 110.714 26.3576C110.377 26.8437 110.209 27.913 110.209 29.5656C110.209 31.1938 110.401 32.2631 110.762 32.7735C111.122 33.2838 111.867 33.5511 112.973 33.5511C114.151 33.5511 114.92 33.381 115.281 33.0408C115.617 32.7249 115.81 32.0201 115.81 30.9751Z" fill="black"/>
<path d="M128.79 29.8811H121.651C121.651 31.4122 121.819 32.4086 122.18 32.8946C122.54 33.3806 123.309 33.6237 124.463 33.6237C125.641 33.6237 126.386 33.5022 126.747 33.2834C127.083 33.0647 127.276 32.603 127.276 31.8982V31.5823H128.79C128.79 32.9189 128.43 33.8424 127.684 34.3041C127.107 34.6687 126.026 34.8631 124.463 34.8631C122.781 34.8631 121.651 34.4985 121.026 33.7695C120.401 33.0404 120.112 31.6552 120.112 29.6138C120.112 27.6696 120.449 26.3087 121.098 25.5553C121.747 24.8019 122.877 24.4131 124.439 24.4131C125.978 24.4131 127.083 24.7533 127.756 25.4581C128.43 26.1629 128.766 27.378 128.766 29.1277V29.8811H128.79ZM127.276 28.7146C127.276 27.5481 127.083 26.7461 126.675 26.2844C126.266 25.8226 125.521 25.6039 124.463 25.6039C123.382 25.6039 122.66 25.8226 122.252 26.2844C121.843 26.7461 121.651 27.5481 121.651 28.7146H127.276Z" fill="black"/>
</svg>
